<svg width="228" height="136" viewBox="0 0 228 136" fill="none" xmlns="http://www.w3.org/2000/svg">
<path fill-rule="evenodd" clip-rule="evenodd" d="M0 57.5284V73.9773H42.1449V88.4659H62.3011V73.9773H72.7415V57.358H62.3011V27.9798L53.6307 43.9659L51.1307 39.4659L42.6307 56.9659L51.6307 32.4659L53.6307 37.4659L62.3011 25.0021V1.19318H50.3693H42.571H35.7528L0 57.5284ZM42.571 23.5227H41.8892L20.9659 56.6761V57.358H42.571V23.5227ZM100.206 85.1847C105.717 88.7926 112.28 90.5966 119.893 90.5966C121.532 90.5966 123.12 90.5143 124.659 90.3498L117.368 73.0811C115.374 72.6605 113.56 71.7234 111.925 70.2699C109.624 68.196 107.834 65.0568 106.555 60.8523C105.305 56.6477 104.695 51.3494 104.723 44.9574C104.728 43.2508 104.778 41.6242 104.874 40.0776L99.6307 29.9659L92.6447 12.0643C90.6462 14.5365 88.9337 17.3759 87.5071 20.5824C84.5526 27.2585 83.0611 35.3835 83.0327 44.9574C83.0043 54.5313 84.4815 62.7273 87.4645 69.5455C90.4474 76.3352 94.6946 81.5483 100.206 85.1847ZM92.7357 11.9522C94.8949 9.30462 97.385 7.08191 100.206 5.28409C105.717 1.76136 112.28 0 119.893 0C127.507 0 134.07 1.76136 139.581 5.28409C145.121 8.77841 149.382 13.8778 152.365 20.5824C155.348 27.2869 156.825 35.4119 156.797 44.9574C156.797 54.5597 155.305 62.7699 152.322 69.5881C149.339 76.4063 145.092 81.6193 139.581 85.2273C135.676 87.7766 131.224 89.4181 126.224 90.1518L117.723 73.1501C118.425 73.2754 119.148 73.3381 119.893 73.3381C124.439 73.3381 128.118 71.0227 130.93 66.392C132.416 63.9305 133.506 60.7751 134.199 56.9259L136.631 59.9659L135.131 55.9659L134.661 53.7602C134.968 51.1022 135.116 48.1679 135.107 44.9574C135.107 38.6506 134.467 33.4517 133.189 29.3608C131.911 25.2415 130.135 22.1733 127.862 20.1563C125.589 18.1392 122.933 17.1307 119.893 17.1307C115.376 17.1307 111.726 19.4176 108.942 23.9915C106.756 27.5608 105.419 32.6367 104.932 39.2191L99.6307 25.9659V27.4659L92.7357 11.9522Z" fill="white"/>
<path fill-rule="evenodd" clip-rule="evenodd" d="M152.845 89.7596L148.631 105.659L189.369 116.458L185.656 130.463L205.14 135.627L208.852 121.623L218.944 124.298L223.202 108.233L213.11 105.558L227.501 51.2682L215.968 48.2109L208.43 46.2128L201.839 44.4658L187.834 57.4131L180.921 67.0912L184.635 83.8031L202.049 67.6222L202.708 67.7969L194.039 100.503L193.839 100.45L193.921 100.591L191.237 109.836L189.934 114.325L189.421 116.091L190.921 102.091L189.916 99.4097L173.155 94.9668L173.33 94.3078L184.138 84.2646L177.421 68.5912L177.026 67.4052L152.845 89.7596Z" fill="white"/>
</svg>
